<?xml version="1.0" standalone="no"?>
<!DOCTYPE svg PUBLIC "-//W3C//DTD SVG 20010904//EN"
 "http://www.w3.org/TR/2001/REC-SVG-20010904/DTD/svg10.dtd">
<svg version="1.0" xmlns="http://www.w3.org/2000/svg"
 width="565.000000pt" height="565.000000pt" viewBox="0 0 565.000000 565.000000"
 preserveAspectRatio="xMidYMid meet">
<metadata>
Created by potrace 1.11, written by Peter Selinger 2001-2013
</metadata>
<g transform="translate(0.000000,565.000000) scale(0.100000,-0.100000)"
fill="#000000" stroke="none">
<path d="M2668 5325 c-2 -1 -47 -6 -101 -9 -54 -4 -104 -9 -110 -11 -7 -2 -30
-6 -52 -9 -79 -10 -252 -49 -361 -82 -769 -233 -1400 -811 -1699 -1555 -42
-104 -116 -334 -121 -374 -1 -11 -7 -38 -12 -60 -15 -55 -40 -213 -49 -310
-13 -146 -7 -505 11 -600 2 -11 7 -45 12 -75 4 -30 8 -57 9 -60 1 -3 5 -23 9
-45 4 -22 21 -90 37 -151 200 -772 755 -1427 1484 -1753 221 -99 499 -178 721
-206 27 -4 60 -9 74 -12 14 -3 120 -7 235 -8 204 -3 299 4 445 35 30 6 66 13
80 16 99 19 391 113 512 164 68 30 78 31 153 25 43 -4 82 -8 85 -10 3 -1 34
-6 70 -9 36 -4 75 -8 85 -10 11 -2 47 -7 80 -10 33 -4 71 -8 85 -11 24 -4 64
-9 160 -20 25 -3 61 -7 80 -10 37 -6 80 -11 173 -20 32 -4 66 -8 76 -10 21 -4
98 -14 156 -20 22 -2 56 -6 75 -9 43 -6 109 -14 175 -21 28 -3 64 -7 80 -10
80 -12 125 -16 125 -11 0 3 -10 22 -21 43 -118 208 -271 534 -335 709 -31 85
-41 122 -61 214 -3 14 -6 50 -6 82 0 52 5 65 67 168 134 224 250 495 302 709
26 109 44 195 49 236 4 28 8 57 10 65 4 14 8 55 20 195 10 106 4 366 -10 475
-3 25 -8 63 -11 85 -2 22 -7 54 -11 70 -3 17 -7 39 -8 50 -11 87 -104 402
-145 492 -11 24 -20 45 -20 48 0 11 -100 214 -136 277 -125 216 -277 412 -459
591 -72 71 -318 274 -345 285 -8 3 -19 10 -25 14 -24 21 -125 83 -214 132
-279 153 -592 255 -921 300 -19 3 -57 8 -85 12 -48 6 -411 14 -417 9z"/>
</g>
</svg>
